<svg width="20" height="20" viewBox="0 0 20 20" fill="none" xmlns="http://www.w3.org/2000/svg">
<path d="M15.7473 11.6667H4.58398C3.89363 11.6667 3.33398 11.107 3.33398 10.4167V4.16667C3.33398 3.24619 4.08018 2.5 5.00065 2.5H8.33398" stroke="#101820" stroke-width="1.5" stroke-linecap="round" stroke-linejoin="round"/>
<path fill-rule="evenodd" clip-rule="evenodd" d="M15.8335 17.5H4.16841C3.64551 17.5 3.15293 17.2545 2.83803 16.8371C2.52313 16.4196 2.42244 15.8786 2.56606 15.3758L3.45299 12.2711C3.55519 11.9133 3.8822 11.6666 4.25429 11.6666H15.7476C16.1197 11.6666 16.4467 11.9133 16.5489 12.2711L17.4358 15.3758C17.5795 15.8786 17.4788 16.4196 17.1639 16.8371C16.849 17.2545 16.3564 17.5 15.8335 17.5Z" stroke="#101820" stroke-width="1.5" stroke-linecap="round" stroke-linejoin="round"/>
<path d="M8.33398 15H11.6673" stroke="#101820" stroke-width="1.5" stroke-linecap="round" stroke-linejoin="round"/>
<path d="M6.83398 5.00004H8.50065" stroke="#101820" stroke-width="1.5" stroke-linecap="round" stroke-linejoin="round"/>
<path d="M7.66602 7.50004H8.49935" stroke="#101820" stroke-width="1.5" stroke-linecap="round" stroke-linejoin="round"/>
<path d="M12.5215 5.00281V6.87727C12.5215 7.30339 12.7622 7.69294 13.1434 7.88351L13.5591 8.09138C14.2043 8.41395 14.9637 8.41395 15.6088 8.09138L16.0246 7.88351C16.4057 7.69294 16.6465 7.30339 16.6465 6.87727V5.00281" stroke="#101820" stroke-width="1.5" stroke-linecap="round" stroke-linejoin="round"/>
<path fill-rule="evenodd" clip-rule="evenodd" d="M11.172 4.30519L13.723 5.62388C14.2631 5.90306 14.905 5.90306 15.4451 5.62388L17.996 4.30519C18.2037 4.19788 18.3341 3.98368 18.3341 3.74995C18.3341 3.51622 18.2037 3.30202 17.996 3.19471L15.4451 1.87601C14.905 1.59683 14.2631 1.59683 13.723 1.87601L11.172 3.19471C10.9644 3.30202 10.834 3.51622 10.834 3.74995C10.834 3.98368 10.9644 4.19788 11.172 4.30519Z" stroke="#101820" stroke-width="1.5" stroke-linecap="round" stroke-linejoin="round"/>
<path d="M18.3327 3.75854V5.20605" stroke="#101820" stroke-width="1.5" stroke-linecap="round" stroke-linejoin="round"/>
</svg>
